<?xml version="1.0" encoding="UTF-8" standalone="no"?>
<!-- Created with Inkscape (http://www.inkscape.org/) -->

<svg
   xmlns:dc="http://purl.org/dc/elements/1.1/"
   xmlns:cc="http://creativecommons.org/ns#"
   xmlns:rdf="http://www.w3.org/1999/02/22-rdf-syntax-ns#"
   xmlns:svg="http://www.w3.org/2000/svg"
   xmlns="http://www.w3.org/2000/svg"
   xmlns:sodipodi="http://sodipodi.sourceforge.net/DTD/sodipodi-0.dtd"
   xmlns:inkscape="http://www.inkscape.org/namespaces/inkscape"
   width="600"
   height="100"
   viewBox="0 0 600 100"
   id="svg2"
   version="1.1"
   inkscape:version="0.91 r13725"
   sodipodi:docname="headsstrip.svg">
  <defs
     id="defs4">
    <inkscape:perspective
       sodipodi:type="inkscape:persp3d"
       inkscape:vp_x="0 : 50 : 1"
       inkscape:vp_y="0 : 1000 : 0"
       inkscape:vp_z="600 : 50 : 1"
       inkscape:persp3d-origin="300 : 33.333333 : 1"
       id="perspective4172" />
  </defs>
  <sodipodi:namedview
     id="base"
     pagecolor="#ffffff"
     bordercolor="#666666"
     borderopacity="1.0"
     inkscape:pageopacity="0.0"
     inkscape:pageshadow="2"
     inkscape:zoom="16.786667"
     inkscape:cx="476.59434"
     inkscape:cy="11.974635"
     inkscape:document-units="px"
     inkscape:current-layer="layer1"
     showgrid="true"
     units="px"
     showguides="false"
     inkscape:guide-bbox="true"
     guidecolor="#00078b"
     guideopacity="0.49803922"
     inkscape:window-width="1440"
     inkscape:window-height="799"
     inkscape:window-x="0"
     inkscape:window-y="1"
     inkscape:window-maximized="1">
    <inkscape:grid
       type="xygrid"
       id="grid3354"
       empcolor="#073fff"
       empopacity="0.25098039"
       color="#fd3fff"
       opacity="0.1254902"
       spacingx="50"
       spacingy="10"
       empspacing="2" />
    <sodipodi:guide
       position="200,50"
       orientation="1,0"
       id="guide3356" />
    <sodipodi:guide
       position="400,250"
       orientation="1,0"
       id="guide3358" />
    <sodipodi:guide
       position="280,700"
       orientation="0,1"
       id="guide3362" />
    <sodipodi:guide
       position="360,600"
       orientation="0,1"
       id="guide3364" />
    <sodipodi:guide
       position="420,500"
       orientation="0,1"
       id="guide3366" />
    <sodipodi:guide
       position="480,400"
       orientation="0,1"
       id="guide3368" />
    <sodipodi:guide
       position="580,300"
       orientation="0,1"
       id="guide3370" />
  </sodipodi:namedview>
  <metadata
     id="metadata7">
    <rdf:RDF>
      <cc:Work
         rdf:about="">
        <dc:format>image/svg+xml</dc:format>
        <dc:type
           rdf:resource="http://purl.org/dc/dcmitype/StillImage" />
        <dc:title></dc:title>
      </cc:Work>
    </rdf:RDF>
  </metadata>
  <g
     inkscape:label="Faces Layer 1"
     inkscape:groupmode="layer"
     id="layer1"
     transform="translate(0,-952.3622)">
    <path
       style="fill:none;fill-rule:evenodd;stroke:#000000;stroke-width:3;stroke-linecap:butt;stroke-linejoin:miter;stroke-miterlimit:4;stroke-dasharray:none;stroke-opacity:1"
       d="m 100.04643,1052.4006 0,-10"
       id="path3354"
       inkscape:connector-curvature="0" />
    <path
       inkscape:connector-curvature="0"
       id="path3356"
       d="m 500.02343,1052.3622 0,-10"
       style="fill:none;fill-rule:evenodd;stroke:#000000;stroke-width:3;stroke-linecap:butt;stroke-linejoin:miter;stroke-miterlimit:4;stroke-dasharray:none;stroke-opacity:1" />
    <path
       style="fill:none;fill-rule:evenodd;stroke:#000000;stroke-width:3;stroke-linecap:butt;stroke-linejoin:miter;stroke-miterlimit:4;stroke-dasharray:none;stroke-opacity:1"
       d="m 299.9909,1052.392 0,-10"
       id="path3358"
       inkscape:connector-curvature="0" />
    <ellipse
       style="fill:none;fill-rule:evenodd;stroke:#000000;stroke-width:3;stroke-linecap:butt;stroke-linejoin:miter;stroke-miterlimit:4;stroke-dasharray:none;stroke-opacity:1"
       id="path3360"
       cx="100"
       cy="1012.3622"
       rx="50"
       ry="30" />
    <rect
       style="fill:none"
       id="rect3362"
       width="100"
       height="50"
       x="250"
       y="982.36218" />
    <rect
       style="fill:none"
       id="rect3364"
       width="100"
       height="50"
       x="250"
       y="982.36218" />
    <rect
       style="fill:none"
       id="rect3366"
       width="100"
       height="60"
       x="250"
       y="972.36218" />
    <rect
       style="opacity:0.01000001;fill:#000000;fill-opacity:1;stroke:#000000;stroke-opacity:1"
       id="rect3368"
       width="100"
       height="60"
       x="250"
       y="982.36218" />
    <rect
       style="opacity:1;fill:none;fill-opacity:1;stroke:#000000;stroke-width:3;stroke-miterlimit:4;stroke-dasharray:none;stroke-opacity:1"
       id="rect4170"
       width="99.914467"
       height="58.969276"
       x="250.04277"
       y="983.35016" />
    <path
       sodipodi:type="star"
       style="opacity:1;fill:none;fill-opacity:1;stroke:#000000;stroke-width:0.66918081;stroke-miterlimit:4;stroke-dasharray:none;stroke-opacity:1"
       id="path4188"
       sodipodi:sides="3"
       sodipodi:cx="500"
       sodipodi:cy="990.36218"
       sodipodi:r1="10"
       sodipodi:r2="5"
       sodipodi:arg1="-1.5707963"
       sodipodi:arg2="-0.52359878"
       inkscape:flatsided="false"
       inkscape:rounded="0"
       inkscape:randomized="0"
       d="m 500,980.36218 4.33013,7.5 4.33012,7.5 -8.66025,0 -8.66025,0 4.33012,-7.5 z"
       inkscape:transform-center-y="-9.7854376"
       transform="matrix(5.39215,0,0,3.914132,-2196.075,-2853.5018)" />
    <path
       style="opacity:1;fill:none;fill-opacity:1;stroke:#000000;stroke-width:3;stroke-miterlimit:4;stroke-dasharray:none;stroke-opacity:1"
       id="path4190"
       d="m 88.110806,1002.1723 c 1.482143,-0.064 3.131979,-0.248 4.380155,-1.126 0.584849,0.7856 1.176508,1.5661 1.754547,2.3567 0.05159,0.07 -0.09061,-0.1713 -0.174526,-0.1957 -0.181498,-0.053 -0.378269,-0.035 -0.566737,-0.02 -0.753869,0.058 -1.422258,0.3302 -2.101377,0.6364 -0.407217,0.2454 -0.713135,0.4888 -1.137836,0.7018 0,0 -0.469659,-1.9198 -0.469659,-1.9198 l 0,0 c -1.144817,-0.2785 -1.088298,-0.2623 -0.26544,-0.9981 0.878949,-0.4468 1.741574,-0.7418 2.723342,-0.8677 0.163359,-0.021 0.384748,-0.1716 0.491897,-0.046 0.699092,0.816 1.182717,1.7944 1.774075,2.6916 -1.346066,0.8125 -3.060227,0.9987 -4.589714,1.1731 0,0 -1.818727,-2.3857 -1.818727,-2.3857 z"
       inkscape:connector-curvature="0" />
    <path
       style="opacity:1;fill:none;fill-opacity:1;stroke:#000000;stroke-width:3;stroke-miterlimit:4;stroke-dasharray:none;stroke-opacity:1"
       id="path4192"
       d="m 113.18293,1000.9782 c 1.37969,1.1914 0.20277,0.068 1.9409,3.6865 0.0867,0.1805 0.22317,0.3327 0.3282,0.5031 0.0954,0.1549 0.18174,0.3151 0.27282,0.4726 0.0761,0.1315 0.27085,0.5404 0.22875,0.3944 -0.25347,-0.8792 -0.57733,-1.7366 -0.86599,-2.6049 0.33278,0.1667 0.42655,-0.2373 0.69444,-0.3491 0.18717,-0.078 0.39888,-0.074 0.59832,-0.1108 0,0 1.5001,1.6895 1.5001,1.6895 l 0,0 c -0.005,0.2878 0.0642,0.587 -0.0163,0.8634 -0.14662,0.5037 -0.74536,0.6612 -1.18128,0.5959 -0.44217,-1.0245 -0.86817,-2.0562 -1.32651,-3.0735 -0.13328,-0.2958 -0.33256,-0.5575 -0.51065,-0.8287 -0.11613,-0.1769 -0.40023,-0.7311 -0.35859,-0.5237 0.42033,2.0939 1.33235,3.0276 0.37494,1.9339 0,0 -1.67919,-2.6486 -1.67919,-2.6486 z"
       inkscape:connector-curvature="0" />
    <path
       style="opacity:1;fill:none;fill-opacity:1;stroke:#000000;stroke-width:2.48463917;stroke-miterlimit:4;stroke-dasharray:none;stroke-opacity:1"
       id="path4194"
       d="m 78.250694,1020.1701 c 0.133564,0.6058 0.276001,1.2143 0.602247,1.7962 0.785506,0.8449 0.415524,0.7583 -0.301066,-0.8993 -0.06546,-0.1519 0.349026,0.2367 0.533948,0.3494 0.757566,0.4016 1.614204,0.7314 2.495133,1.0318 0.520822,0.176 1.066099,0.3239 1.614357,0.4676 0.733548,0.1919 1.486139,0.3568 2.235693,0.5261 0.768466,0.1652 1.52346,0.351 2.290265,0.5182 1.691755,0.3783 3.423179,0.6892 5.163918,0.9796 1.907393,0.3179 3.851507,0.5485 5.816948,0.6991 1.589823,0.1067 3.190933,0.082 4.783043,0.016 2.93677,-0.1245 5.79696,-0.5498 8.60791,-1.0413 2.10933,-0.3969 4.13425,-0.9305 6.06412,-1.5646 1.28645,-0.431 2.19593,-1.0951 3.0349,-1.7924 1.07814,-0.9231 1.73119,-1.9688 2.22662,-3.04 0.12919,-0.1357 0.33184,-1.1687 0.53644,-1.2295 0.085,-0.026 0.20129,0.024 0.26087,0.068 0.41813,0.3043 0.76637,0.6393 1.14956,0.959 0,0 -0.81774,-0.8034 -0.81774,-0.8034 l 0,0 c 0.53149,0.3622 1.09297,0.7101 1.59446,1.0867 0.11611,0.087 0.21071,0.1895 0.24928,0.2977 0.0886,0.2483 -0.56981,0.9541 -0.5598,1.217 -0.59854,1.0656 -1.35939,2.1028 -2.43724,3.0355 -0.88856,0.7107 -1.89368,1.3553 -3.24637,1.7699 -1.98699,0.6086 -4.07353,1.0918 -6.22695,1.4606 -2.83499,0.4861 -5.72312,0.886 -8.67549,1.0263 -1.63198,0.034 -3.26797,0.028 -4.88844,-0.1066 -1.999483,-0.1746 -3.968482,-0.4446 -5.912163,-0.7696 -1.704595,-0.2901 -3.405016,-0.5889 -5.083603,-0.9278 -0.777781,-0.1584 -1.559973,-0.309 -2.319304,-0.4974 -0.75376,-0.1707 -1.504079,-0.3463 -2.262852,-0.5089 -0.571731,-0.1261 -1.124719,-0.276 -1.650973,-0.459 -0.889121,-0.3031 -1.759297,-0.6288 -2.549731,-1.0161 -0.003,0 -0.598557,-0.2796 -0.617486,-0.3032 -0.57316,-0.7156 -1.038638,-1.4676 -1.578465,-2.1917 -0.283436,-0.5871 -0.426442,-1.1927 -0.5473,-1.7979 0,0 0.415261,1.6466 0.415261,1.6466 z"
       inkscape:connector-curvature="0" />
    <path
       style="opacity:1;fill:none;fill-opacity:1;stroke:#000000;stroke-width:3;stroke-miterlimit:4;stroke-dasharray:none;stroke-opacity:1"
       id="path4196"
       d="m 97.768203,982.3288 c -2.725965,-1.65008 -5.601087,-3.03093 -8.508001,-4.32733 -3.906083,-1.69204 -8.015258,-2.96545 -12.295915,-3.13841 -0.991092,-0.04 -1.983765,0.012 -2.975648,0.0179 -1.071381,0.0693 -2.142762,0.13861 -3.214144,0.20792 0,0 -0.900948,-1.1231 -0.900948,-1.1231 l 0,0 c 0.849545,-0.36176 1.69909,-0.72352 2.548635,-1.08528 2.280618,-0.49502 2.761016,-0.76402 5.103168,-0.62583 3.341749,0.19717 6.510434,1.50635 9.58799,2.70154 2.8289,1.22707 5.701605,2.41402 8.326512,4.04811 0,0 2.328351,3.32444 2.328351,3.32444 z"
       inkscape:connector-curvature="0" />
    <path
       style="opacity:1;fill:none;fill-opacity:1;stroke:#000000;stroke-width:3;stroke-miterlimit:4;stroke-dasharray:none;stroke-opacity:1"
       id="path4204"
       d="m 102.05302,981.74874 c -1.18877,-0.73152 -2.16864,-1.65763 -2.87889,-2.85717 -0.23959,-0.57802 -0.36068,-0.78904 -0.47994,-1.41644 -0.0515,-0.27108 0.0135,-0.56901 -0.0962,-0.82218 -0.51836,-1.19608 -1.354027,-2.25163 -1.771189,-3.48666 -0.08178,-0.24211 0.634129,-1.89074 0.687933,-2.02371 1.296056,-2.75072 3.473146,-4.80028 5.887926,-6.56682 4.3864,-2.83993 9.56643,-3.63054 14.64699,-4.27353 3.32491,-0.3303 6.66535,-0.40946 10.00402,-0.42427 0.95043,-0.004 4.45306,-0.0147 5.52726,0.094 0.7574,0.0766 1.49908,0.26616 2.24863,0.39924 0,0 0.6376,0.8304 0.6376,0.8304 l 0,0 c -0.57883,0.087 -1.15246,0.22198 -1.73649,0.26112 -1.78757,0.11979 -3.58411,0.0107 -5.37403,0.0878 -3.23082,0.13916 -6.45361,0.45226 -9.66551,0.81721 -4.99994,0.69964 -10.08037,1.56392 -14.32599,4.49396 -2.36365,1.79702 -4.50054,3.85 -5.72975,6.61056 -0.12755,0.34317 -0.28007,0.67807 -0.38265,1.02952 -0.0924,0.31659 0.11185,1.07428 -0.20066,0.96886 -0.80298,-0.27089 -1.136848,-1.32874 -1.907968,-1.68021 -0.252618,-0.11514 0.01016,0.5563 0.04612,0.83158 0.07688,0.58849 0.202449,0.87582 0.388353,1.42707 0.616715,1.22016 1.521795,2.16003 2.696525,2.87008 0,0 1.77791,2.82964 1.77791,2.82964 z"
       inkscape:connector-curvature="0" />
    <path
       style="opacity:1;fill:none;fill-opacity:1;stroke:#000000;stroke-width:1.66633964;stroke-miterlimit:4;stroke-dasharray:none;stroke-opacity:1"
       id="path4208"
       d="m 288.14216,1005.3651 c 0.55888,-0.8938 -0.43091,-1.3374 1.71867,0.3767 0.0368,0.029 -0.10618,-0.044 -0.16038,-0.034 -0.11736,0.02 -0.21402,0.08 -0.32103,0.1189 -0.56187,0.3468 -1.06628,0.7938 -1.29359,1.3026 -0.045,0.1009 -0.009,0.2158 -0.0711,0.3119 -0.11828,0.1844 -0.30594,0.343 -0.4589,0.5146 -0.2459,-0.4154 -0.59999,-0.807 -0.73769,-1.2463 -0.0282,-0.09 0.24329,0.08 0.37433,0.088 0.17649,0.016 0.35635,-0.016 0.52975,-0.031 0.73144,-0.1075 1.3377,-0.3849 1.95204,-0.6648 0.18026,-0.1026 0.36641,-0.2012 0.5408,-0.309 0.252,-0.1564 0.50427,-0.3297 0.69812,-0.5245 0.0397,-0.039 0.041,-0.1632 0.0922,-0.1303 1.904,1.2184 2.13771,1.2336 1.30207,1.0993 -0.33973,0.098 -0.65499,0.2511 -0.85031,0.4744 -0.042,0.047 -0.0391,0.1108 -0.076,0.1596 -0.0885,0.1206 -0.18452,0.4561 -0.29844,0.3472 -0.27765,-0.2657 -0.22662,-0.6386 -0.33993,-0.9579 0,0 0.97473,0.8073 0.97473,0.8073 l 0,0 c -0.41806,-0.3831 -0.7328,-0.834 -1.25417,-1.149 -0.17132,-0.1043 -0.48994,0.068 -0.67898,-0.02 -0.37598,-0.1734 0.79532,-0.7793 0.99909,-0.8382 1.04536,-0.2776 0.49338,-0.2103 1.96525,1.1744 0.14017,0.132 -0.76823,0.6814 -0.85137,0.7303 -0.18477,0.1091 -0.3786,0.2092 -0.5679,0.3137 -0.78034,0.3529 -1.65607,0.7658 -2.62584,0.7801 -0.16474,0.016 -0.39089,0.044 -0.48952,-0.049 -0.52148,-0.4877 -0.84604,-1.0644 -1.26907,-1.5966 -0.21108,-0.016 -0.47908,0.095 -0.63323,-0.016 -0.11901,-0.078 0.06,-0.225 0.1142,-0.3324 0.26902,-0.5328 0.76076,-1.0148 1.34279,-1.4002 0.002,-5e-4 0.59343,-0.3287 0.71022,-0.2593 1.69207,1.0059 2.04948,1.0505 1.47449,2.0893 0,0 -1.81128,-1.1398 -1.81128,-1.1398 z"
       inkscape:connector-curvature="0" />
    <path
       style="opacity:1;fill:none;fill-opacity:1;stroke:#000000;stroke-width:1.66633964;stroke-miterlimit:4;stroke-dasharray:none;stroke-opacity:1"
       id="path4210"
       d="m 310.88171,1004.8961 c 0.29775,-0.1937 0.59112,-0.3954 0.83458,-0.6242 0.0625,-0.059 0.12614,-0.1189 0.1705,-0.1846 0.0231,-0.034 -0.0117,-0.1384 0.0282,-0.1124 0.41777,0.2722 0.77053,0.5895 1.1558,0.8844 -1.0206,0.1222 -1.89696,0.6584 -2.62661,1.1412 -0.15216,0.1124 -0.46957,0.323 -0.56826,0.4815 -0.0332,0.054 0.006,0.1189 -0.0251,0.173 -0.0677,0.1157 -0.15319,0.4252 -0.2662,0.3276 -1.31734,-1.1383 -0.88027,-1.0381 -0.0995,-1.037 1.05858,-0.1205 2.15322,-0.3621 2.98567,-0.8522 0.16276,-0.4553 0.099,-0.3547 1.22075,0.8613 0.0612,0.067 -0.22785,-0.016 -0.33882,0.016 -0.16729,0.021 -0.327,0.067 -0.48748,0.1059 -0.57626,0.1434 -0.61845,0.1704 -1.17593,0.3585 -0.17621,0.07 -0.35424,0.1401 -0.52861,0.2125 -0.15861,0.067 -0.57953,0.2324 -0.71215,0.3621 -0.0333,0.033 0.0183,0.1466 -0.0236,0.1189 -1.44265,-0.9424 -1.61231,-0.9024 -0.7704,-0.8342 0.79931,-0.055 0.37032,-0.031 1.28747,-0.07 0,0 0.95661,0.6976 0.95661,0.6976 l 0,0 c -0.60695,0.3302 -0.27578,0.2151 -0.98553,0.3569 -1.0477,0.044 -0.61637,0.101 -1.87503,-0.9959 -0.14361,-0.1254 1.27077,-0.7063 1.38675,-0.7462 0.28421,-0.099 4.87995,-1.715 3.46857,0.5444 -0.94301,0.438 -2.05269,0.6999 -3.15898,0.8459 -1.35084,0.049 0.23491,0.091 -1.70408,-1.1479 -0.13146,-0.085 -0.36163,0.1124 -0.52626,0.065 -0.0885,-0.024 0.0546,-0.1303 0.10312,-0.1873 0.13548,-0.1613 0.44243,-0.3792 0.60962,-0.5074 0.80555,-0.5081 1.69961,-1.0474 2.75887,-1.2602 0.45857,0.3281 0.96447,0.627 1.3757,0.9846 0.10149,0.088 -1.02433,0.8604 -1.15231,0.9444 0,0 -1.31736,-0.9088 -1.31736,-0.9088 z"
       inkscape:connector-curvature="0" />
    <path
       style="opacity:1;fill:none;fill-opacity:1;stroke:#000000;stroke-width:4.2426405;stroke-miterlimit:4;stroke-dasharray:none;stroke-opacity:1"
       id="path4212"
       d="m 236.92404,969.9124 c -1.51028,-0.60306 -3.08828,-1.1578 -4.57816,-1.77602 -2.06806,-0.78117 -7.39554,-3.67067 -3.41316,-3.4383 3.37106,0.26397 6.73078,0.78678 10.07306,1.40942 5.63788,1.16157 11.05634,2.75333 16.47184,4.29805 4.0231,1.16703 8.08258,2.29051 12.03078,3.5524 1.76118,0.57502 3.40624,1.24008 4.76492,2.07463 0.26434,0.10656 0.91602,0.66509 1.11736,0.58593 -3.57748,0.0953 6.80512,5.25756 3.7712,3.23566 -0.1342,-0.064 -0.29128,-0.17029 -0.37274,-0.23052 0.32584,-0.0919 0.3703,-0.0736 -0.006,0.0203 -0.1708,0.0446 -0.34036,0.0903 -0.51238,0.13431 -0.60766,-1.44297 -0.90274,-0.88361 -5.2656,-4.25742 -0.0678,-1.29869 0.663,-2.41882 1.58392,-3.49844 1.65926,-1.71976 3.90024,-3.19294 7.19012,-4.10127 3.0516,-0.65538 6.44918,-0.42614 10.01144,0.0893 2.10522,0.34741 4.17878,0.81173 6.22874,1.30843 0.7783,0.17195 1.49206,0.42998 2.21978,0.66889 1.5738,0.53214 3.149,1.06385 4.71008,1.60957 0.76572,0.27574 1.54302,0.54157 2.29888,0.82623 1.15618,0.49767 2.22868,1.06625 3.302,1.61882 2.70522,1.42746 5.32436,2.89613 7.98328,4.34566 2.07886,1.15276 4.22018,2.27357 6.41224,3.37024 1.02866,0.46915 1.94292,1.00393 2.9752,1.4692 0.23106,0.10759 0.5176,0.21551 0.71204,0.32453 1.64496,1.10074 1.98682,3.00027 4.11318,4.17499 -1.10538,-1.1622 -2.23138,-2.32137 -3.31618,-3.48651 -0.0366,-0.0394 0.27648,0.10202 0.1982,0.0887 -0.1042,-0.0225 -0.1112,-0.0133 -0.22204,-0.006 -0.1754,0.0191 -0.6124,0.25917 -0.35474,0.0466 -0.062,-0.3907 0.87914,-0.97111 1.33478,-1.2954 2.3369,-1.60193 6.1602,-2.20516 9.95554,-2.76272 4.40622,-0.56361 8.98082,-0.92072 13.50762,-1.33383 0.95714,-0.0976 1.9263,-0.19746 2.8079,-0.37778 1.68176,-0.42417 0.0638,-0.0834 3.74962,2.71887 0,0 -2.4645,-1.61671 -2.4645,-1.61671 l 0,0 c 1.38746,0.86929 5.14518,3.57664 4.18842,2.59788 -1.15566,-0.16301 -2.30632,-0.0815 -3.40974,-0.0855 -4.58684,0.18595 -9.08716,0.54472 -13.22528,1.29505 -3.43864,0.67016 -6.90434,1.42439 -8.96672,2.9836 -0.45662,0.42517 -0.79768,0.89774 -1.21584,1.32301 0.2289,-0.18737 -0.24344,0.10433 -0.40726,0.10636 -2.66602,0.0749 -4.76494,-8.14462 -4.63732,-3.97118 -1.22342,-1.3024 2.9606,-1.47275 3.20102,3.08406 -0.35906,-0.10088 -0.6599,-0.266 -0.98906,-0.39911 -1.07274,-0.48981 -2.21588,-0.93822 -3.21684,-1.47375 -2.24994,-1.12349 -4.4415,-2.2795 -6.62768,-3.43518 -2.63852,-1.44109 -5.24716,-2.89651 -7.92332,-4.31979 -1.01786,-0.52235 -2.01432,-1.04965 -3.18002,-1.47326 -0.76632,-0.30991 -1.55366,-0.60253 -2.3414,-0.89481 -1.53202,-0.55625 -3.0917,-1.0877 -4.70132,-1.56122 -0.70234,-0.21628 -1.40188,-0.43581 -2.1095,-0.64512 -2.03302,-0.56328 -4.11602,-1.05773 -6.23332,-1.44238 -3.31214,-0.51313 -6.57388,-0.77304 -9.23316,0.0175 -2.94268,1.01909 -5.15306,2.39762 -6.62308,4.10187 -0.80852,1.09945 -1.38796,2.22196 -1.0848,3.52886 -1.73416,-1.20549 -3.46832,-2.41088 -5.20248,-3.61638 -0.004,0.0935 0.0234,0.2011 -0.0538,0.27968 -0.1124,0.0806 -0.28776,0.12253 -0.41048,0.19758 -0.42832,0.15005 -0.1532,0.0437 0.1294,4.5e-4 0.2369,-0.005 0.47722,0.017 0.72044,0.075 0.30106,0.0829 0.57196,0.1974 0.77954,0.34599 1.8708,1.33891 7.6032,3.76347 5.0565,4.16504 -0.0794,0.0125 -0.1816,-0.0217 -0.27224,-0.0325 -0.69058,-0.47627 -1.33152,-0.96891 -2.1,-1.41908 -1.41912,-0.78537 -2.84534,-1.57269 -4.61722,-2.13968 -3.9787,-1.32904 -8.0952,-2.49863 -12.1778,-3.70297 -5.38924,-1.55018 -10.82298,-3.08457 -16.437,-4.24489 -3.21958,-0.59698 -6.44628,-1.04671 -9.68066,-1.23806 -2.98024,-0.17019 -0.42266,0.0795 -5.0321,-3.16603 -0.1728,-0.12163 0.51638,0.61937 0.54148,0.37247 1.43882,0.65902 2.93054,1.27836 4.5034,1.84009 0,0 3.97104,3.16292 3.97104,3.16292 z"
       inkscape:connector-curvature="0" />
    <path
       style="opacity:1;fill:none;fill-opacity:1;stroke:#000000;stroke-width:2.44144249;stroke-miterlimit:4;stroke-dasharray:none;stroke-opacity:1"
       id="path4216"
       d="m 496.42187,1010.9657 c -0.84493,-0.091 -1.61944,-0.5766 -2.48116,-0.5834 -0.22396,0.066 -0.20722,0.2642 -0.16088,0.4001 0.25312,0.1694 -1.42803,0.5991 -0.69627,0.5539 -1.20864,-1.885 -1.84345,-2.1418 -0.55409,-1.4265 0,0 1.03114,0.8646 1.03114,0.8646 l 0,0 c 0.0154,0.8843 0.04,0.196 -1.61898,-1.7684 0.36049,-0.3662 -1.07286,0.5688 -0.78257,0.2743 0.15266,-0.2122 0.24733,-0.4355 0.60178,-0.5446 0.84643,-0.1031 1.59825,0.225 2.37884,0.3932 0,0 2.28219,1.8368 2.28219,1.8368 z"
       inkscape:connector-curvature="0" />
    <path
       style="opacity:1;fill:none;fill-opacity:1;stroke:#000000;stroke-width:2.44144249;stroke-miterlimit:4;stroke-dasharray:none;stroke-opacity:1"
       id="path4218"
       d="m 507.33702,1011.0647 c -0.18099,0.2426 -1.2507,1.4987 -0.97768,1.6932 -1.67466,-0.8638 -3.66791,-1.66 -1.49942,-2.112 0,0 1.54894,0.9322 1.54894,0.9322 l 0,0 c 0.12954,0.3956 0.25643,0.5405 0.13559,0.9195 -0.34236,1.0735 -2.67521,-1.1642 -2.80956,-1.2382 0.66699,-0.4043 0.75382,-1.1488 1.19979,-1.6433 0,0 2.40234,1.4486 2.40234,1.4486 z"
       inkscape:connector-curvature="0" />
    <path
       style="opacity:1;fill:none;fill-opacity:1;stroke:#000000;stroke-width:3.22929978;stroke-miterlimit:4;stroke-dasharray:none;stroke-opacity:1"
       id="path4220"
       d="m 279.21662,1026.1181 c 22.50918,0.093 9.90561,0.2876 30.91258,-0.533 4.37738,-0.171 8.76492,-0.3196 13.1474,-0.4794 0,0 2.37089,0.6985 2.37089,0.6985 l 0,0 c -4.09339,0.2542 -8.17233,0.5284 -12.28017,0.7622 -19.41921,1.1051 -8.56522,0.068 -25.59179,2.1421 0,0 -8.55891,-2.5904 -8.55891,-2.5904 z"
       inkscape:connector-curvature="0" />
    <path
       style="fill:none;fill-rule:evenodd;stroke:#000000;stroke-width:1px;stroke-linecap:butt;stroke-linejoin:miter;stroke-opacity:1"
       d="m 500,982.3622 c 1.33977,-0.80814 2.71354,-1.56242 4.01931,-2.42441 0.0965,-0.0637 -0.23116,0 -0.34673,0 -0.15411,0 -0.30821,0 -0.46232,0 -0.35058,0 -0.70117,0 -1.05176,0 -0.6386,0 -1.27154,-0.0215 -1.90704,0.0619 -0.89508,0.11743 -1.78319,0.32148 -2.66986,0.48767 -0.99794,0.18704 -1.9995,0.37435 -3.01659,0.41852 -0.33101,0.0144 -0.66265,0 -0.99397,0 -0.74797,0 -1.25946,0.0354 -1.9995,-0.10554 -0.85272,-0.16239 -1.80755,-0.49347 -2.46182,-1.08816 -0.31793,-0.28898 -0.62362,-0.74325 -0.70503,-1.17551 -0.0447,-0.23724 -0.002,-0.48282 0,-0.72422 0.002,-0.26691 -0.0684,-0.54601 0.0116,-0.80066 0.0994,-0.31643 0.31186,-0.58819 0.50855,-0.85524 0.22502,-0.30553 0.4898,-0.58025 0.75125,-0.85525 1.4311,-1.50521 3.13219,-2.67733 4.94675,-3.67573 2.17074,-1.19437 4.78287,-2.35791 7.24676,-2.71858 0.54283,-0.0795 1.09303,-0.10168 1.64121,-0.12374 0.47733,-0.0192 0.96511,-0.0956 1.43317,0 0.72033,0.14712 1.48587,0.6939 1.90704,1.29196 0.51175,0.72668 0.46898,1.11412 0.47387,1.96161 0.002,0.32774 0.0929,0.68073 -0.0347,0.98262 -0.27919,0.6606 -1.33345,1.40932 -1.90704,1.70685 -1.5196,0.78823 -3.28555,1.02825 -4.96986,1.09908 -0.59884,0.0252 -3.10995,0.003 -3.72162,-0.0801 -0.90964,-0.12316 -2.34681,-0.56014 -3.20151,-0.93895 -1.05728,-0.4686 -2.28143,-1.15241 -2.54272,-2.39833 -0.089,-0.4244 0.0211,-1.69497 0.23115,-2.07078 0.2272,-0.40657 0.58904,-0.72672 0.93619,-1.03721 2.38325,-2.13157 5.88986,-2.65035 8.94575,-2.04895 0.55607,0.10944 1.09772,0.28333 1.64121,0.444 1.44298,0.42659 2.84977,0.93025 4.18393,1.63043 0.37712,0.19791 1.01285,0.54519 1.34071,0.88072 0.11454,0.11721 0.16517,0.32284 0.13869,0.33118 -0.31141,0.0981 -0.45335,-0.20288 -0.56633,-0.47312 -0.26708,-0.63879 -0.21568,-1.25458 -0.19648,-1.93249 0.0429,-1.51583 -0.0728,-1.41221 0.84372,-2.80593 1.09772,-1.6693 2.61576,-3.10935 4.39197,-4.03602 2.15488,-1.12424 5.08311,-1.52925 7.397,-0.64417 1.1111,0.42501 2.1954,1.21626 3.0166,2.06715 0.50723,0.52557 1.38067,1.73591 1.62965,2.47475 0.11263,0.33423 0.11558,0.69907 0.11558,1.05177 0,0.28406 0.0679,0.62749 -0.11558,0.84432 -0.5525,0.65283 -1.94052,0.65807 -2.61207,0.67328 -0.60505,0.0137 -1.21708,0.0345 -1.81458,-0.0619 -1.15218,-0.18577 -2.98717,-0.87085 -4.02212,-1.37567 -1.58677,-0.77399 -3.33825,-1.86783 -3.88343,-3.67937 -0.14411,-0.47886 -0.1344,-0.99605 -0.11557,-1.49577 0.0619,-1.64209 0.23123,-1.93073 1.53719,-3.12255 2.61058,-2.38243 6.44311,-3.67947 9.91661,-3.95596 1.8032,-0.14354 4.39589,-0.13078 5.85981,1.16095 0.7879,0.69522 0.71731,1.12491 0.72814,2.05622 0.004,0.31075 0.0849,0.64484 -0.0347,0.93167 -0.22204,0.53253 -1.00552,1.00875 -1.51407,1.17551 -0.26206,0.0859 -0.54485,0.10177 -0.82061,0.10554 -0.49613,0.007 -0.78211,-0.0759 -0.50854,-0.72423 0.41003,-0.97172 1.5118,-1.62383 2.33468,-2.09989 3.01697,-1.74545 6.35191,-2.78804 9.63922,-3.8759"
       id="path4180"
       inkscape:connector-curvature="0" />
    <path
       style="fill:none;fill-rule:evenodd;stroke:#000000;stroke-width:1px;stroke-linecap:butt;stroke-linejoin:miter;stroke-opacity:1"
       d="m 500,1022.3622 c -4.11552,0.9315 -8.227,1.881 -12.34656,2.7944 -0.0973,0.022 -0.32653,-0.1449 -0.41609,-0.1856 -0.17344,-0.079 -0.35556,-0.094 -0.53166,-0.1638 -0.30851,-0.1214 -0.60177,-0.308 -0.87839,-0.4877 -0.15105,-0.098 -0.29148,-0.1394 -0.36985,-0.2875 -0.0528,-0.1 -0.12428,-0.3164 -0.13869,-0.2438 -0.0247,0.1243 0.38634,0.3547 0.47387,0.4185 0.78033,0.5686 1.53787,1.1698 2.32312,1.7323 1.0025,0.7182 1.96706,1.4945 2.99347,2.18 0.59273,0.3958 1.21615,0.7673 1.84926,1.0954 0.43042,0.2231 0.87632,0.413 1.30603,0.6369 0.85024,0.443 1.69603,0.899 2.61207,1.1937 1.70755,0.5494 3.54915,0.4003 5.3166,0.4003 0.84372,0 1.68744,0 2.53116,0 0.0999,0 1.64432,0 1.75679,-0.01 0.27256,-0.024 0.54001,-0.089 0.80904,-0.1383 0.89531,-0.1654 1.75152,-0.4158 2.56584,-0.8297 0.55089,-0.2801 1.0206,-0.6311 1.50252,-1.0118 1.28686,-1.0164 2.3554,-2.2971 3.08594,-3.7703 0.32999,-0.6655 0.54,-1.3831 0.75125,-2.0926 0.0724,-0.2432 0.11142,-0.067 0.34674,-0.1238 0.11033,-0.026 0.20566,-0.32 0.0925,-0.3275 -5.20668,-0.3464 -10.42332,-0.5212 -15.63496,-0.7818"
       id="path4182"
       inkscape:connector-curvature="0" />
  </g>
</svg>
