<?xml version="1.0" encoding="UTF-8" standalone="no"?>
<!-- Created with Inkscape (http://www.inkscape.org/) -->

<svg
   xmlns:dc="http://purl.org/dc/elements/1.1/"
   xmlns:cc="http://creativecommons.org/ns#"
   xmlns:rdf="http://www.w3.org/1999/02/22-rdf-syntax-ns#"
   xmlns:svg="http://www.w3.org/2000/svg"
   xmlns="http://www.w3.org/2000/svg"
   xmlns:sodipodi="http://sodipodi.sourceforge.net/DTD/sodipodi-0.dtd"
   xmlns:inkscape="http://www.inkscape.org/namespaces/inkscape"
   width="600"
   height="100"
   viewBox="0 0 600 100"
   id="svg2"
   version="1.1"
   inkscape:version="0.91 r13725"
   sodipodi:docname="legsstrip.svg">
  <defs
     id="defs4">
    <inkscape:perspective
       sodipodi:type="inkscape:persp3d"
       inkscape:vp_x="0 : 50 : 1"
       inkscape:vp_y="0 : 1000 : 0"
       inkscape:vp_z="600 : 50 : 1"
       inkscape:persp3d-origin="300 : 33.333333 : 1"
       id="perspective4172" />
  </defs>
  <sodipodi:namedview
     id="base"
     pagecolor="#ffffff"
     bordercolor="#666666"
     borderopacity="1.0"
     inkscape:pageopacity="0.0"
     inkscape:pageshadow="2"
     inkscape:zoom="25.146667"
     inkscape:cx="283.12411"
     inkscape:cy="91.661502"
     inkscape:document-units="px"
     inkscape:current-layer="layer1"
     showgrid="true"
     units="px"
     showguides="true"
     inkscape:guide-bbox="true"
     guidecolor="#00078b"
     guideopacity="0.49803922"
     inkscape:window-width="1440"
     inkscape:window-height="799"
     inkscape:window-x="0"
     inkscape:window-y="1"
     inkscape:window-maximized="1"
     objecttolerance="10000">
    <inkscape:grid
       type="xygrid"
       id="grid3354"
       empcolor="#073fff"
       empopacity="0.25098039"
       color="#fd3fff"
       opacity="0.1254902"
       spacingx="20"
       spacingy="10"
       empspacing="2" />
    <sodipodi:guide
       position="200,50"
       orientation="1,0"
       id="guide3356" />
    <sodipodi:guide
       position="400,250"
       orientation="1,0"
       id="guide3358" />
    <sodipodi:guide
       position="280,700"
       orientation="0,1"
       id="guide3362" />
    <sodipodi:guide
       position="360,600"
       orientation="0,1"
       id="guide3364" />
    <sodipodi:guide
       position="420,500"
       orientation="0,1"
       id="guide3366" />
    <sodipodi:guide
       position="480,400"
       orientation="0,1"
       id="guide3368" />
    <sodipodi:guide
       position="580,300"
       orientation="0,1"
       id="guide3370" />
  </sodipodi:namedview>
  <metadata
     id="metadata7">
    <rdf:RDF>
      <cc:Work
         rdf:about="">
        <dc:format>image/svg+xml</dc:format>
        <dc:type
           rdf:resource="http://purl.org/dc/dcmitype/StillImage" />
        <dc:title></dc:title>
      </cc:Work>
    </rdf:RDF>
  </metadata>
  <g
     inkscape:label="Layer 1"
     inkscape:groupmode="layer"
     id="layer1"
     transform="translate(0,-952.3622)">
    <rect
       style="fill:none"
       id="rect3362"
       width="100"
       height="50"
       x="250"
       y="982.36218" />
    <rect
       style="fill:none"
       id="rect3364"
       width="100"
       height="50"
       x="250"
       y="982.36218" />
    <rect
       style="fill:none"
       id="rect3366"
       width="100"
       height="60"
       x="250"
       y="972.36218" />
    <rect
       style="fill:#000000;opacity:0.01;stroke:#000000;stroke-opacity:1;fill-opacity:1"
       id="rect3368"
       width="100"
       height="60"
       x="250"
       y="982.36218" />
    <ellipse
       style="opacity:1;fill:#000000;fill-opacity:1;stroke:none;stroke-width:3;stroke-miterlimit:4;stroke-dasharray:none;stroke-opacity:1"
       id="path4243"
       cx="52.164417"
       cy="1017.7998"
       rx="48.828434"
       ry="21.675934" />
    <rect
       style="opacity:1;fill:#000000;fill-opacity:1;stroke:none;stroke-width:3;stroke-miterlimit:4;stroke-dasharray:none;stroke-opacity:1"
       id="rect4269"
       width="41.074665"
       height="50.492455"
       x="252.85541"
       y="991.87769" />
    <path
       sodipodi:type="star"
       style="opacity:1;fill:#000000;fill-opacity:1;stroke:none;stroke-width:3;stroke-miterlimit:4;stroke-dasharray:none;stroke-opacity:1"
       id="path4273"
       sodipodi:sides="3"
       sodipodi:cx="450"
       sodipodi:cy="1022.3622"
       sodipodi:r1="10"
       sodipodi:r2="5"
       sodipodi:arg1="-1.5707963"
       sodipodi:arg2="-0.52359878"
       inkscape:flatsided="false"
       inkscape:rounded="0"
       inkscape:randomized="0"
       d="m 450,1012.3622 4.33013,7.5 4.33012,7.5 -8.66025,0 -8.66025,0 4.33012,-7.5 z"
       inkscape:transform-center-y="-11.550842"
       transform="matrix(2.454367,0,0,4.6201957,-583.49284,-3704.038)" />
    <path
       style="fill:none;fill-rule:evenodd;stroke:#000000;stroke-width:3;stroke-linecap:butt;stroke-linejoin:miter;stroke-miterlimit:4;stroke-dasharray:none;stroke-opacity:1"
       d="m 480.22607,1002.3622 0,-50"
       id="path4277"
       inkscape:connector-curvature="0" />
    <path
       inkscape:connector-curvature="0"
       id="path4279"
       d="m 520.04521,1002.3622 0,-50"
       style="fill:none;fill-rule:evenodd;stroke:#000000;stroke-width:3;stroke-linecap:butt;stroke-linejoin:miter;stroke-miterlimit:4;stroke-dasharray:none;stroke-opacity:1" />
    <path
       inkscape:connector-curvature="0"
       id="path4281"
       d="m 280.17153,1002.4218 0,-50.00002"
       style="fill:none;fill-rule:evenodd;stroke:#000000;stroke-width:3;stroke-linecap:butt;stroke-linejoin:miter;stroke-miterlimit:4;stroke-dasharray:none;stroke-opacity:1" />
    <path
       style="fill:none;fill-rule:evenodd;stroke:#000000;stroke-width:3;stroke-linecap:butt;stroke-linejoin:miter;stroke-miterlimit:4;stroke-dasharray:none;stroke-opacity:1"
       d="m 320.05331,1002.3622 0,-50"
       id="path4283"
       inkscape:connector-curvature="0" />
    <path
       style="fill:none;fill-rule:evenodd;stroke:#000000;stroke-width:3;stroke-linecap:butt;stroke-linejoin:miter;stroke-miterlimit:4;stroke-dasharray:none;stroke-opacity:1"
       d="m 80.5,1002.3622 0,-50"
       id="path4327"
       inkscape:connector-curvature="0" />
    <path
       inkscape:connector-curvature="0"
       id="path4329"
       d="m 119.65194,1002.3622 0,-50"
       style="fill:none;fill-rule:evenodd;stroke:#000000;stroke-width:3;stroke-linecap:butt;stroke-linejoin:miter;stroke-miterlimit:4;stroke-dasharray:none;stroke-opacity:1" />
    <ellipse
       ry="21.675934"
       rx="48.828434"
       cy="1017.7998"
       cx="150.16441"
       id="ellipse4331"
       style="opacity:1;fill:#000000;fill-opacity:1;stroke:none;stroke-width:3;stroke-miterlimit:4;stroke-dasharray:none;stroke-opacity:1" />
    <rect
       y="991.87769"
       x="306.85541"
       height="50.492455"
       width="41.074665"
       id="rect4333"
       style="opacity:1;fill:#000000;fill-opacity:1;stroke:none;stroke-width:3;stroke-miterlimit:4;stroke-dasharray:none;stroke-opacity:1" />
    <path
       transform="matrix(2.454367,0,0,4.6201957,-623.49284,-3704.038)"
       inkscape:transform-center-y="-11.550842"
       d="m 450,1012.3622 4.33013,7.5 4.33012,7.5 -8.66025,0 -8.66025,0 4.33012,-7.5 z"
       inkscape:randomized="0"
       inkscape:rounded="0"
       inkscape:flatsided="false"
       sodipodi:arg2="-0.52359878"
       sodipodi:arg1="-1.5707963"
       sodipodi:r2="5"
       sodipodi:r1="10"
       sodipodi:cy="1022.3622"
       sodipodi:cx="450"
       sodipodi:sides="3"
       id="path4335"
       style="opacity:1;fill:#000000;fill-opacity:1;stroke:none;stroke-width:3;stroke-miterlimit:4;stroke-dasharray:none;stroke-opacity:1"
       sodipodi:type="star" />
    <rect
       style="opacity:1;fill:#ffffff;fill-opacity:1;stroke:none;stroke-width:6;stroke-miterlimit:4;stroke-dasharray:none;stroke-opacity:1"
       id="rect4161"
       width="20"
       height="10"
       x="256"
       y="994.36218" />
    <path
       sodipodi:type="spiral"
       style="fill:#ffffff;fill-rule:evenodd;stroke:#000000;stroke-width:1px;stroke-linecap:butt;stroke-linejoin:miter;stroke-opacity:1"
       id="path4165"
       sodipodi:cx="480"
       sodipodi:cy="1012.3622"
       sodipodi:expansion="1"
       sodipodi:revolution="3"
       sodipodi:radius="20"
       sodipodi:argument="-17.278759"
       sodipodi:t0="0"
       d="m 480,1012.3622 c 0,1.0028 -1.35171,0.4947 -1.66667,0 -0.8535,-1.3407 0.37538,-2.9223 1.66667,-3.3334 2.30982,-0.7352 4.53261,1.1309 5,3.3334 0.68591,3.2323 -1.88965,6.1716 -5,6.6666 -4.14561,0.6598 -7.82176,-2.6487 -8.33333,-6.6666 -0.64376,-5.0561 3.40783,-9.4774 8.33334,-10 5.96544,-0.633 11.13615,4.1668 11.66666,10 0.62517,6.8742 -4.9257,12.7969 -11.66668,13.3333 -7.78272,0.6193 -14.45895,-5.6845 -14.99999,-13.3333 -0.61476,-8.6911 6.44339,-16.12196 15.00001,-16.66668 9.59923,-0.6111 17.78558,7.20218 18.33332,16.66668 0.60811,10.5074 -7.96101,19.4497 -18.33334,20"
       transform="matrix(0.74479199,0,0,0.28850774,123.03898,743.26552)" />
    <rect
       y="995.03705"
       x="325.10019"
       height="10"
       width="20"
       id="rect4205"
       style="opacity:1;fill:#ffffff;fill-opacity:1;stroke:none;stroke-width:6;stroke-miterlimit:4;stroke-dasharray:none;stroke-opacity:1" />
    <path
       transform="matrix(0.74479199,0,0,0.28850774,162.45117,743.26552)"
       d="m 480,1012.3622 c 0,1.0028 -1.35171,0.4947 -1.66667,0 -0.8535,-1.3407 0.37538,-2.9223 1.66667,-3.3334 2.30982,-0.7352 4.53261,1.1309 5,3.3334 0.68591,3.2323 -1.88965,6.1716 -5,6.6666 -4.14561,0.6598 -7.82176,-2.6487 -8.33333,-6.6666 -0.64376,-5.0561 3.40783,-9.4774 8.33334,-10 5.96544,-0.633 11.13615,4.1668 11.66666,10 0.62517,6.8742 -4.9257,12.7969 -11.66668,13.3333 -7.78272,0.6193 -14.45895,-5.6845 -14.99999,-13.3333 -0.61476,-8.6911 6.44339,-16.12196 15.00001,-16.66668 9.59923,-0.6111 17.78558,7.20218 18.33332,16.66668 0.60811,10.5074 -7.96101,19.4497 -18.33334,20"
       sodipodi:t0="0"
       sodipodi:argument="-17.278759"
       sodipodi:radius="20"
       sodipodi:revolution="3"
       sodipodi:expansion="1"
       sodipodi:cy="1012.3622"
       sodipodi:cx="480"
       id="path4207"
       style="fill:#ffffff;fill-rule:evenodd;stroke:#000000;stroke-width:1px;stroke-linecap:butt;stroke-linejoin:miter;stroke-opacity:1"
       sodipodi:type="spiral" />
  </g>
</svg>
